#N canvas 804 2 958 1028 12;
#X msg 630 16 \; pd dsp 1 \;;
#X msg 721 16 \; pd dsp 0 \;;
#X text 840 0 terry feng;
#X text 838 38 A5;
#X text 839 19 11/22/2020;
#X floatatom 82 185 5 0 0 0 - - -;
#X floatatom 201 185 5 0 0 0 - - -;
#X obj 82 141 bng 15 250 50 0 empty empty empty 17 7 0 10 -262144 -1
-1;
#X obj 201 141 bng 15 250 50 0 empty empty empty 17 7 0 10 -262144
-1 -1;
#X floatatom 322 185 5 0 0 0 - - -;
#X obj 322 141 bng 15 250 50 0 empty empty empty 17 7 0 10 -262144
-1 -1;
#X obj 206 309 dac~;
#X floatatom 443 185 5 0 0 0 - - -;
#X obj 443 141 bng 15 250 50 0 empty empty empty 17 7 0 10 -262144
-1 -1;
#X obj 443 208 FMGhost;
#X msg 82 161 261;
#X msg 201 161 261;
#X msg 322 161 261;
#X msg 443 161 261;
#X text 81 116 inst 1;
#X text 200 118 inst 2;
#X text 322 117 inst 3;
#X text 441 118 inst 4;
#X obj 119 469 PDSequence;
#X text 507 188 <--- Feel free to drag this up and down \, sounds like
a real ghost;
#X obj 122 424 bng 15 250 50 0 empty empty empty 17 7 0 10 -262144
-1 -1;
#X floatatom 115 517 5 0 0 0 - - -;
#X obj 120 672 dac~;
#X obj 201 208 FMClarinet;
#X obj 82 208 FMBrass;
#X obj 322 208 FMPlasticDrum;
#X obj 115 544 FMPlasticDrum;
#X text 55 186 C4;
#X obj 116 569 *~ 0.5;
#X obj 406 424 bng 15 250 50 0 empty empty empty 17 7 0 10 -262144
-1 -1;
#X floatatom 399 517 5 0 0 0 - - -;
#X obj 399 638 dac~;
#X obj 403 469 CSequence;
#X obj 399 543 FMClarinet;
#X obj 273 421 bng 15 250 50 0 empty empty empty 17 7 0 10 -262144
-1 -1;
#X floatatom 266 514 5 0 0 0 - - -;
#X obj 266 635 dac~;
#X obj 266 540 FMBrass;
#X obj 270 466 BSequence;
#X obj 266 564 *~ 0.5;
#X obj 399 567 *~ 0.5;
#X obj 541 428 bng 15 250 50 0 empty empty empty 17 7 0 10 -262144
-1 -1;
#X floatatom 534 521 5 0 0 0 - - -;
#X obj 534 642 dac~;
#X obj 534 571 *~ 0.5;
#X obj 534 547 FMGhost;
#X obj 538 473 GSequence;
#X connect 5 0 29 0;
#X connect 6 0 28 0;
#X connect 7 0 15 0;
#X connect 8 0 16 0;
#X connect 9 0 30 0;
#X connect 10 0 17 0;
#X connect 12 0 14 0;
#X connect 13 0 18 0;
#X connect 14 0 11 1;
#X connect 14 0 11 0;
#X connect 15 0 5 0;
#X connect 16 0 6 0;
#X connect 17 0 9 0;
#X connect 18 0 12 0;
#X connect 23 0 26 0;
#X connect 25 0 23 0;
#X connect 26 0 31 0;
#X connect 28 0 11 0;
#X connect 28 0 11 1;
#X connect 29 0 11 0;
#X connect 29 0 11 1;
#X connect 30 0 11 1;
#X connect 30 0 11 0;
#X connect 31 0 33 0;
#X connect 33 0 27 0;
#X connect 33 0 27 1;
#X connect 34 0 37 0;
#X connect 35 0 38 0;
#X connect 37 0 35 0;
#X connect 38 0 45 0;
#X connect 39 0 43 0;
#X connect 40 0 42 0;
#X connect 42 0 44 0;
#X connect 43 0 40 0;
#X connect 44 0 41 0;
#X connect 44 0 41 1;
#X connect 45 0 36 0;
#X connect 45 0 36 1;
#X connect 46 0 51 0;
#X connect 47 0 50 0;
#X connect 49 0 48 0;
#X connect 49 0 48 1;
#X connect 50 0 49 0;
#X connect 51 0 47 0;
