#N canvas 804 2 958 1028 12;
#X msg 630 16 \; pd dsp 1 \;;
#X msg 721 16 \; pd dsp 0 \;;
#X text 840 0 terry feng;
#X text 838 38 A5;
#X text 839 19 11/22/2020;
#X floatatom 82 185 5 0 0 0 - - -;
#X floatatom 201 185 5 0 0 0 - - -;
#X obj 82 141 bng 15 250 50 0 empty empty empty 17 7 0 10 -262144 -1
-1;
#X obj 201 141 bng 15 250 50 0 empty empty empty 17 7 0 10 -262144
-1 -1;
#X floatatom 322 185 5 0 0 0 - - -;
#X obj 322 141 bng 15 250 50 0 empty empty empty 17 7 0 10 -262144
-1 -1;
#X obj 206 309 dac~;
#X floatatom 443 185 5 0 0 0 - - -;
#X obj 443 142 bng 15 250 50 0 empty empty empty 17 7 0 10 -262144
-1 -1;
#X obj 443 208 FMGhost;
#X msg 82 161 261;
#X msg 201 161 261;
#X msg 322 161 261;
#X msg 443 161 261;
#X text 81 116 inst 1;
#X text 200 118 inst 2;
#X text 322 117 inst 3;
#X text 441 118 inst 4;
#X obj 422 708 PDSequence;
#X text 504 186 <--- Feel free to drag this up and down \, sounds like
a real ghost;
#X obj 422 685 bng 15 250 50 0 empty empty empty 17 7 0 10 -262144
-1 -1;
#X floatatom 422 735 5 0 0 0 - - -;
#X obj 234 880 dac~;
#X obj 201 208 FMClarinet;
#X obj 82 208 FMBrass;
#X obj 322 208 FMPlasticDrum;
#X obj 422 761 FMPlasticDrum;
#X text 60 161 C4;
#X obj 217 602 bng 15 250 50 0 empty empty empty 17 7 0 10 -262144
-1 -1;
#X floatatom 217 654 5 0 0 0 - - -;
#X obj 217 626 CSequence;
#X obj 217 681 FMClarinet;
#X obj 319 638 bng 15 250 50 0 empty empty empty 17 7 0 10 -262144
-1 -1;
#X floatatom 319 688 5 0 0 0 - - -;
#X obj 319 714 FMBrass;
#X obj 319 661 BSequence;
#X obj 122 559 bng 15 250 50 0 empty empty empty 17 7 0 10 -262144
-1 -1;
#X floatatom 122 615 5 0 0 0 - - -;
#X obj 122 644 FMGhost;
#X obj 122 585 GSequence;
#X obj 302 483 bng 15 250 50 0 empty empty empty 17 7 0 10 -262144
-1 -1;
#X text 236 433 A Short Fun Sequence;
#X text 475 545 ii V I Cadence;
#X text 147 557 Soprano;
#X text 241 600 Alto;
#X text 348 637 Tenor;
#X text 445 680 Bass;
#X text 323 483 start;
#X text 432 482 G Major;
#X obj 422 788 *~ 0.3;
#X obj 217 709 *~ 0.05;
#X obj 319 741 *~ 0.25;
#X obj 122 674 *~ 0.4;
#X connect 5 0 29 0;
#X connect 6 0 28 0;
#X connect 7 0 15 0;
#X connect 8 0 16 0;
#X connect 9 0 30 0;
#X connect 10 0 17 0;
#X connect 12 0 14 0;
#X connect 13 0 18 0;
#X connect 14 0 11 0;
#X connect 14 0 11 1;
#X connect 15 0 5 0;
#X connect 16 0 6 0;
#X connect 17 0 9 0;
#X connect 18 0 12 0;
#X connect 23 0 26 0;
#X connect 25 0 23 0;
#X connect 26 0 31 0;
#X connect 28 0 11 0;
#X connect 28 0 11 1;
#X connect 29 0 11 0;
#X connect 29 0 11 1;
#X connect 30 0 11 1;
#X connect 30 0 11 0;
#X connect 31 0 54 0;
#X connect 33 0 35 0;
#X connect 34 0 36 0;
#X connect 35 0 34 0;
#X connect 36 0 55 0;
#X connect 37 0 40 0;
#X connect 38 0 39 0;
#X connect 39 0 56 0;
#X connect 40 0 38 0;
#X connect 41 0 44 0;
#X connect 42 0 43 0;
#X connect 43 0 57 0;
#X connect 44 0 42 0;
#X connect 45 0 25 0;
#X connect 45 0 37 0;
#X connect 45 0 33 0;
#X connect 45 0 41 0;
#X connect 54 0 27 0;
#X connect 54 0 27 1;
#X connect 55 0 27 0;
#X connect 55 0 27 1;
#X connect 56 0 27 0;
#X connect 56 0 27 1;
#X connect 57 0 27 0;
#X connect 57 0 27 1;
