#N canvas 955 305 706 511 12;
#X obj 196 307 osc~;
#X text 232 306 carrier;
#X obj 196 260 +~;
#X obj 197 178 osc~;
#X obj 291 178 *;
#X obj 258 238 *~;
#X text 328 177 d = I*fm;
#X obj 293 379 *~;
#X floatatom 291 202 5 0 0 0 - - -;
#X obj 209 223 *~;
#X obj 137 51 unpack 1 1 1;
#X obj 137 17 inlet;
#X text 116 101 fc;
#X text 184 101 fm;
#X text 262 101 I;
#X floatatom 142 102 5 0 0 0 - - -;
#X floatatom 209 102 5 0 0 0 - - -;
#X floatatom 279 102 5 0 0 0 - - -;
#X obj 425 18 inlet;
#X text 470 17 ASR;
#X text 179 18 fc \, fm \, I;
#X obj 293 403 outlet~;
#X text 592 3 terry feng;
#X text 593 35 FMInst;
#X text 592 20 11/22/2020;
#X obj 438 218 ASDecay;
#X connect 0 0 7 0;
#X connect 2 0 0 0;
#X connect 3 0 9 0;
#X connect 4 0 8 0;
#X connect 5 0 9 1;
#X connect 7 0 21 0;
#X connect 8 0 5 1;
#X connect 9 0 2 1;
#X connect 10 0 15 0;
#X connect 10 1 16 0;
#X connect 10 2 17 0;
#X connect 11 0 10 0;
#X connect 15 0 2 0;
#X connect 16 0 3 0;
#X connect 16 0 4 0;
#X connect 17 0 4 1;
#X connect 18 0 25 0;
#X connect 25 0 7 1;
#X connect 25 0 5 0;
