#N canvas 150 128 713 602 12;
#X floatatom 172 166 5 0 0 0 - - -;
#X text 208 165 fc;
#X floatatom 251 166 5 0 0 0 - - -;
#X text 292 165 fm;
#X floatatom 332 166 5 0 0 0 - - -;
#X text 371 165 I;
#X msg 137 264 100 800 100;
#X obj 251 327 FMInst;
#X obj 251 264 pack 1 1 1;
#X obj 251 216 t b f;
#X obj 323 216 t b f;
#X text 102 263 ASR;
#X msg 332 127 5;
#X obj 250 55 inlet;
#X obj 250 93 t f b;
#X obj 251 351 outlet~;
#X text 298 54 brass;
#X text 530 29 terry feng;
#X text 531 48 FMBrass;
#X connect 0 0 8 0;
#X connect 0 0 6 0;
#X connect 2 0 9 0;
#X connect 4 0 10 0;
#X connect 6 0 7 1;
#X connect 7 0 15 0;
#X connect 8 0 7 0;
#X connect 9 0 8 0;
#X connect 9 0 6 0;
#X connect 9 1 8 1;
#X connect 10 0 8 0;
#X connect 10 0 6 0;
#X connect 10 1 8 2;
#X connect 12 0 4 0;
#X connect 13 0 14 0;
#X connect 14 0 0 0;
#X connect 14 0 2 0;
#X connect 14 1 12 0;
