#N canvas 275 188 728 583 12;
#X floatatom 175 166 5 0 0 0 - - -;
#X text 208 165 fc;
#X floatatom 249 166 5 0 0 0 - - -;
#X text 292 165 fm;
#X floatatom 332 166 5 0 0 0 - - -;
#X text 371 165 I;
#X msg 137 264 100 800 100;
#X obj 251 327 FMInst;
#X obj 251 264 pack 1 1 1;
#X obj 251 216 t b f;
#X obj 323 216 t b f;
#X obj 250 55 inlet;
#X obj 250 93 t f b;
#X obj 251 351 outlet~;
#X text 530 29 terry feng;
#X text 298 54 clarinet;
#X msg 332 127 3;
#X text 529 47 FMClarinet;
#X obj 175 132 * 3;
#X obj 249 132 * 2;
#X connect 0 0 8 0;
#X connect 0 0 6 0;
#X connect 2 0 9 0;
#X connect 4 0 10 0;
#X connect 6 0 7 1;
#X connect 7 0 13 0;
#X connect 8 0 7 0;
#X connect 9 0 8 0;
#X connect 9 0 6 0;
#X connect 9 1 8 1;
#X connect 10 0 8 0;
#X connect 10 0 6 0;
#X connect 10 1 8 2;
#X connect 11 0 12 0;
#X connect 12 0 18 0;
#X connect 12 0 19 0;
#X connect 12 1 16 0;
#X connect 16 0 4 0;
#X connect 18 0 0 0;
#X connect 19 0 2 0;
