#N canvas 284 106 845 655 12;
#X floatatom 172 166 5 0 0 0 - - -;
#X text 208 165 fc;
#X floatatom 251 166 5 0 0 0 - - -;
#X text 292 165 fm;
#X floatatom 332 166 5 0 0 0 - - -;
#X text 371 165 I;
#X obj 251 264 pack 1 1 1;
#X obj 251 216 t b f;
#X obj 323 216 t b f;
#X obj 250 55 inlet;
#X obj 250 93 t f b;
#X obj 250 363 outlet~;
#X text 530 29 terry feng;
#X msg 332 132 2;
#X msg 255 132 5;
#X text 531 48 FMGhost;
#X text 298 54 ghost;
#X text 73 265 ASDecay;
#X obj 252 330 FMInstDecay;
#X msg 137 264 200 700 500;
#X connect 0 0 6 0;
#X connect 0 0 19 0;
#X connect 2 0 7 0;
#X connect 4 0 8 0;
#X connect 6 0 18 0;
#X connect 7 0 6 0;
#X connect 7 0 19 0;
#X connect 7 1 6 1;
#X connect 8 0 6 0;
#X connect 8 0 19 0;
#X connect 8 1 6 2;
#X connect 9 0 10 0;
#X connect 10 0 0 0;
#X connect 10 1 13 0;
#X connect 10 1 14 0;
#X connect 13 0 4 0;
#X connect 14 0 2 0;
#X connect 18 0 11 0;
#X connect 19 0 18 1;
