#N canvas 203 194 638 600 12;
#X floatatom 172 166 5 0 0 0 - - -;
#X text 208 165 fc;
#X floatatom 251 166 5 0 0 0 - - -;
#X text 292 165 fm;
#X floatatom 332 166 5 0 0 0 - - -;
#X text 371 165 I;
#X obj 251 327 FMInst;
#X obj 251 264 pack 1 1 1;
#X obj 251 216 t b f;
#X obj 323 216 t b f;
#X text 102 263 ASR;
#X obj 250 55 inlet;
#X obj 250 93 t f b;
#X obj 251 351 outlet~;
#X text 530 29 terry feng;
#X text 531 48 FMPlasticDrum;
#X text 298 54 plastic drum;
#X msg 332 132 2;
#X msg 255 132 5;
#X msg 137 264 1 100 100;
#X connect 0 0 7 0;
#X connect 0 0 19 0;
#X connect 2 0 8 0;
#X connect 4 0 9 0;
#X connect 6 0 13 0;
#X connect 7 0 6 0;
#X connect 8 0 7 0;
#X connect 8 0 19 0;
#X connect 8 1 7 1;
#X connect 9 0 7 0;
#X connect 9 0 19 0;
#X connect 9 1 7 2;
#X connect 11 0 12 0;
#X connect 12 0 0 0;
#X connect 12 1 17 0;
#X connect 12 1 18 0;
#X connect 17 0 4 0;
#X connect 18 0 2 0;
#X connect 19 0 6 1;
