#N canvas 0 50 1211 589 12;
#N canvas 0 50 450 250 (subpatch) 0;
#X array CSeq 13 float 3;
#A 0 392 392 392 392 370 370 392 392 440 440 440 440 523;
#X coords 0 600 15 0 200 140 1 0 0;
#X restore 137 328 graph;
#X obj 379 138 tgl 15 0 empty empty empty 17 7 0 10 -262144 -1 -1 0
1;
#X obj 138 127 bng 15 250 50 0 empty empty empty 17 7 0 10 -262144
-1 -1;
#X obj 379 159 metro 250;
#X text 379 110 Metronome;
#X msg 463 68 0;
#X text 402 69 reset;
#X obj 557 116 bng 15 250 50 0 empty empty empty 17 7 0 10 -262144
-1 -1;
#X obj 557 134 float 0;
#X floatatom 557 161 5 0 0 0 - - -;
#X floatatom 649 134 5 0 0 0 - - -;
#X text 707 133 counter;
#X obj 649 162 + 1;
#X text 557 88 Counter;
#X floatatom 754 221 5 0 0 0 - - -;
#X floatatom 754 276 5 0 0 0 - - -;
#X text 814 221 index;
#X text 753 195 Melody Read;
#X text 1103 12 terry feng;
#X obj 70 31 inlet;
#X text 815 276 note pitch;
#X obj 894 368 outlet;
#X obj 254 83 delay 3250;
#X text 1053 33 clarinet sequence;
#X obj 754 248 tabread CSeq;
#X text 140 148 START CSequence;
#X msg 138 207 \; CSeq resize 13 \; CSeq bounds 0 600 15 0 \; CSeq
xlabel 0 0 5 10 15 \; CSeq ylabel 0 0 150 300 450 600 \; CSeq 0 392
392 392 392 370 370 392 392 440 440 440 440 523 \;, f 62;
#X connect 1 0 3 0;
#X connect 2 0 1 0;
#X connect 2 0 5 0;
#X connect 2 0 26 0;
#X connect 2 0 22 0;
#X connect 3 0 7 0;
#X connect 5 0 10 0;
#X connect 5 0 9 0;
#X connect 7 0 8 0;
#X connect 8 0 9 0;
#X connect 9 0 10 0;
#X connect 9 0 14 0;
#X connect 10 0 12 0;
#X connect 12 0 8 1;
#X connect 14 0 24 0;
#X connect 15 0 21 0;
#X connect 19 0 2 0;
#X connect 22 0 1 0;
#X connect 24 0 15 0;
