#N canvas 675 40 886 768 10;
#X obj 72 295 line~;
#X msg 72 259 1 \$1;
#X obj 91 132 +;
#X floatatom 91 169 5 0 0 0 - - -;
#X obj 91 205 delay;
#X msg 109 259 0 \$1;
#X obj 72 71 unpack 0 0 0;
#X floatatom 141 101 5 0 0 0 - - -;
#X obj 102 229 float 0;
#X floatatom 106 100 5 0 0 0 - - -;
#X floatatom 72 99 5 0 0 0 - - -;
#X obj 72 41 inlet;
#X obj 72 323 outlet~;
#X text 82 85 A;
#X text 115 85 S;
#X text 151 86 R;
#X connect 0 0 12 0;
#X connect 1 0 0 0;
#X connect 2 0 3 0;
#X connect 3 0 4 0;
#X connect 4 0 8 0;
#X connect 5 0 0 0;
#X connect 6 0 10 0;
#X connect 6 1 9 0;
#X connect 6 2 7 0;
#X connect 7 0 8 1;
#X connect 8 0 5 0;
#X connect 9 0 2 1;
#X connect 10 0 1 0;
#X connect 10 0 2 0;
#X connect 11 0 6 0;
